<svg fill="none" height="145" viewBox="0 0 66 145" width="66" xmlns="http://www.w3.org/2000/svg"><path d="m56.7665 145h-47.53295c-5.10079 0-9.23355-7.536-9.23355-16.837v-102.5213c0-9.3015 4.13276-16.83774 9.23355-16.83774h47.53295c5.1007 0 9.2335 7.53624 9.2335 16.83774v102.5213c0 9.301-4.1328 16.837-9.2335 16.837z" fill="#f7bc28"/><g fill="#e48929"><path d="m55.5254 53.2296h-45.0508c-2.14706 0-3.89696-3.1911-3.89696-7.1063v-19.78c0-3.9152 1.7499-7.1062 3.89696-7.1062h45.0508c2.147 0 3.8969 3.191 3.8969 7.1062v19.78c0 3.9152-1.7499 7.1063-3.8969 7.1063z"/><path d="m55.5254 92.45h-45.0507c-1.812 0-3.27646-2.6706-3.27646-5.9748v-19.7798c0-3.3042 1.46446-5.9747 3.27646-5.9747h45.0507c1.812 0 3.2765 2.6705 3.2765 5.9747v19.7798c0 3.3042-1.4645 5.9748-3.2765 5.9748z"/><path d="m55.5254 133.933h-45.0508c-2.14706 0-3.89696-3.191-3.89696-7.106v-19.78c0-3.915 1.7499-7.1061 3.89696-7.1061h45.0508c2.147 0 3.8969 3.1911 3.8969 7.1061v19.78c0 3.915-1.7499 7.106-3.8969 7.106z"/></g><path d="m33.3476 82.6051c1.8233 0 3.3013-2.6952 3.3013-6.0199 0-3.3248-1.478-6.02-3.3013-6.02-1.8232 0-3.3012 2.6952-3.3012 6.02 0 3.3247 1.478 6.0199 3.3012 6.0199z" fill="#f7bc28"/><path d="m33.3476 122.957c1.8233 0 3.3013-2.695 3.3013-6.02s-1.478-6.02-3.3013-6.02c-1.8232 0-3.3012 2.695-3.3012 6.02s1.478 6.02 3.3012 6.02z" fill="#f7bc28"/><path d="m10.2635 10.6369c1.6382 16.521 2.6807 33.6758 4.4182 50.0836h32.7518c-2.6807-28.7421-4.0707-39.1072-5.6097-57.55197-.1737-1.99158-1.179-3.39473-2.2711-3.1457826l-27.5393 6.2462926c-1.1666.27157-1.9609 2.26315-1.7499 4.36786z" fill="#fbfaf7"/><path d="m18.5415 24.691c6.1929.3848 12.3735-.1131 18.5292-1.4937.9804-.2264.9928-3.0553 0-2.8289-6.1433 1.3805-12.3363 1.8784-18.5292 1.4936-.9928-.0453-.9928 2.7837 0 2.829z" fill="#194429"/><path d="m19.7827 36.0069c6.193.3846 12.3735-.1133 18.5292-1.4937.9804-.2264.9928-3.0553 0-2.8289-6.1433 1.3804-12.3362 1.8783-18.5292 1.4937-.9928-.0454-.9928 2.7836 0 2.8289z" fill="#194429"/><path d="m21.0234 47.3228c6.193.3848 12.3735-.1131 18.5292-1.4937.9804-.2262.9929-3.0551 0-2.8289-6.1433 1.3805-12.3362 1.8784-18.5292 1.4936-.9928-.0451-.9928 2.7839 0 2.829z" fill="#194429"/></svg>