<svg fill="none" height="25" viewBox="0 0 25 25" width="25" xmlns="http://www.w3.org/2000/svg"><path d="m21.3379 0h-17.67579c-2.01912 0-3.66211 1.64299-3.66211 3.66211v17.67579c0 2.0191 1.64299 3.6621 3.66211 3.6621h17.67579c2.0191 0 3.6621-1.643 3.6621-3.6621v-17.67579c0-2.01912-1.643-3.66211-3.6621-3.66211zm-8.7891 19.043c-3.63481 0-6.59177-2.957-6.59177-6.5918 0-3.63486 2.95696-6.59182 6.59177-6.59182 3.6349 0 6.5918 2.95696 6.5918 6.59182 0 3.6348-2.9569 6.5918-6.5918 6.5918zm7.3242-11.71878c-1.2115 0-2.1972-.98572-2.1972-2.19727 0-1.21154.9857-2.19726 2.1972-2.19726 1.2116 0 2.1973.98572 2.1973 2.19726 0 1.21155-.9857 2.19727-2.1973 2.19727z" fill="#198c36"/></svg>