<svg fill="none" height="28" viewBox="0 0 30 28" width="30" xmlns="http://www.w3.org/2000/svg"><path d="m25.6055 0h-21.21097c-2.42294 0-4.39453 1.81788-4.39453 4.05192v19.55728c0 2.2341 1.97159 4.0519 4.39453 4.0519h21.21097c2.4229 0 4.3945-1.8178 4.3945-4.0519v-19.55728c0-2.23404-1.9716-4.05192-4.3945-4.05192zm-15 21.9344h-3.51566v-11.3454h3.51566zm0-12.96614h-3.51566v-3.24154h3.51566zm12.3047 12.96614h-3.5157v-6.4831c0-.8935-.7887-1.6207-1.7578-1.6207s-1.7578.7272-1.7578 1.6207v6.4831h-3.5156v-11.3454h3.5156v.611c.921-.264 1.5193-.611 2.6367-.611 2.3843.0023 4.3946 1.9745 4.3946 4.3052z" fill="#198c36"/></svg>