<svg fill="none" height="74" viewBox="0 0 73 74" width="73" xmlns="http://www.w3.org/2000/svg"><path d="m20.24 3.0462c-5.822 2.55214-10.98802 6.66849-14.10402 11.6904-7.79 12.5961-7.708 31.696 5.49402 40.6696 15.99 10.8672 44.28 5.3513 46.166-16.877 1.886-22.393-13.53-45.85622-37.556-35.483z" fill="#f7bc28"/><path d="m22.946 9.55002c-4.346 1.89348-8.118 4.93958-10.414 8.64438-5.82204 9.3853-5.74004 23.5455 4.1 30.214 11.89 8.0681 32.882 3.9517 34.276-12.5137 1.312-16.5478-10.086-34.0011-27.962-26.34468z" fill="#fbfaf7"/><path d="m42.708 52.6893c4.018 5.1043 6.478 7.5741 10.25 10.7025 2.706 2.2228 5.412 4.4457 8.036 6.6685 2.214 1.8112 4.838 3.7871 7.626 3.2931 2.952-.494 5.002-3.9517 4.018-6.8332-.328-.9879-.984-1.8935-1.722-2.7168-5.084-6.5038-10.988-12.349-17.548-17.4533z" fill="#f7bc28"/><g fill="#e48929"><path d="m57.14 66.7672 9.43-8.3151 1.804 2.0582-9.184 7.9034z"/><path d="m60.4199 69.5664 8.938-7.7388 1.558 1.9759-8.61 7.3271z"/></g></svg>