<svg fill="none" height="24" viewBox="0 0 30 24" width="30" xmlns="http://www.w3.org/2000/svg"><path d="m30 3.25392c-1.1156.45122-2.3044.75031-3.5438.89553 1.275-.70191 2.2482-1.80489 2.7057-3.13436-1.1888.6535-2.5013 1.11509-3.9 1.37269-1.1288-1.10818-2.7375-1.794518-4.4925-1.794518-3.405 0-6.1463 2.548278-6.1463 5.672258 0 .4495.0413.8817.1425 1.29316-5.1131-.22993-9.63747-2.4895-12.67685-5.93158-.53063.84885-.84187 1.82044-.84187 2.86638 0 1.96394 1.09687 3.70482 2.73187 4.71272-.98813-.0172-1.9575-.2818-2.77875-.6984v.0622c0 2.7558 2.13187 5.0447 4.9275 5.572-.50063.1262-1.04625.1867-1.6125.1867-.39375 0-.79125-.0207-1.16438-.0968.79688 2.2458 3.05813 3.8968 5.74688 3.9504-2.0925 1.5092-4.74938 2.4186-7.62562 2.4186-.50438 0-.98813-.0207-1.47188-.0778 2.72438 1.6199 5.95312 2.5448 9.435 2.5448 11.3175 0 17.505-8.6441 17.505-16.13678 0-.25068-.0094-.49271-.0225-.73302 1.2206-.79872 2.2462-1.79625 3.0825-2.94418z" fill="#198c36"/></svg>